# File created by Blade
# Date/Time:  Tue Sep 30 19:11:40 2014
#---------------------------------------------------------
:version 1.10
:name HOM
:units
  mass 1.0
  length 1.000000
  angle deg
:documentation
     Acclaim Skeleton File
:root
   axis xyz
   order TX TY TZ RX RY RZ
   position 0.000000 0.000000 0.000000
   orientation 0 0 0
:bonedata
   begin
      id 1
      name Spine_dum
      direction 0.000000 1.000000 0.000000
      length 7.508948
      axis 0.0 0.0 0.0 xyz
   end
   begin
      id 2
      name LeftUpLeg_dum
      direction 1.000000 0.000000 0.000000
      length 3.000560
      axis 0.0 0.0 0.0 xyz
   end
   begin
      id 3
      name RightUpLeg_dum
      direction -1.000000 0.000000 0.000000
      length 3.000560
      axis 0.0 0.0 0.0 xyz
   end
   begin
      id 4
      name Spine
      direction 0.000000 1.000000 0.000000
      length 0.000000
      axis 0.0 0.0 0.0 xyz
      dof rx ry rz
   end
   begin
      id 5
      name Spine_dum1
      direction 0.000000 1.000000 0.000000
      length 13.861154
      axis 0.0 0.0 0.0 xyz
   end
   begin
      id 6
      name Spine_dum2
      direction 0.000000 1.000000 0.000000
      length 8.204781
      axis 0.0 0.0 0.0 xyz
   end
   begin
      id 7
      name Spine_dum3
      direction 0.000000 1.000000 0.000000
      length 8.204781
      axis 0.0 0.0 0.0 xyz
   end
   begin
      id 8
      name Head
      direction 0.000000 1.000000 0.000000
      length 4.527550
      axis 0.0 0.0 0.0 xyz
      dof rx ry rz
   end
   begin
      id 9
      name LeftShoulder
      direction 1.000000 0.000000 0.000000
      length 6.635956
      axis 0.0 0.0 -90.0 xyz
      dof rx ry rz
   end
   begin
      id 10
      name LeftArm
      direction 1.000000 0.000000 0.000000
      length 10.274218
      axis 0.0 0.0 -90.0 xyz
      dof rx ry rz
   end
   begin
      id 11
      name LeftForeArm
      direction 1.000000 0.000000 0.000000
      length 8.522147
      axis 0.0 0.0 -90.0 xyz
      dof ry rz rx
   end
   begin
      id 12
      name LeftHand
      direction 0.000000 0.000000 0.000000
      length 0.000000
      axis 0.0 0.0 -90.0 xyz
      dof rx ry rz
   end
   begin
      id 13
      name LeftHand_dum1
      direction 0.000000 0.000000 0.000000
      length 0.000000
      axis 0.0 0.0 -90.0 xyz
   end
   begin
      id 14
      name LeftHand_dum2
      direction 1.000000 0.000000 0.000000
      length 3.937000
      axis 0.0 0.0 -90.0 xyz
   end
   begin
      id 15
      name LeftHandThumb1
      direction 0.000000 0.000000 1.000000
      length 3.937000
      axis 0.0 0.0 -90.0 xyz
      dof rx rz ry
   end
   begin
      id 16
      name RightShoulder
      direction -1.000000 0.000000 0.000000
      length 6.635956
      axis 0.0 0.0 90.0 xyz
      dof rx ry rz
   end
   begin
      id 17
      name RightArm
      direction -1.000000 0.000000 0.000000
      length 10.274218
      axis 0.0 0.0 90.0 xyz
      dof rx ry rz
   end
   begin
      id 18
      name RightForeArm
      direction -1.000000 0.000000 0.000000
      length 8.522147
      axis 0.0 0.0 90.0 xyz
      dof ry rz rx
   end
   begin
      id 19
      name RightHand
      direction 0.000000 0.000000 0.000000
      length 0.000000
      axis 0.0 0.0 90.0 xyz
      dof rx ry rz
   end
   begin
      id 20
      name RightHand_dum1
      direction 0.000000 0.000000 0.000000
      length 0.000000
      axis 0.0 0.0 90.0 xyz
   end
   begin
      id 21
      name RightHand_dum2
      direction -1.000000 0.000000 0.000000
      length 3.937000
      axis 0.0 0.0 90.0 xyz
   end
   begin
      id 22
      name RightHandThumb1
      direction 0.000000 0.000000 1.000000
      length 3.937000
      axis 0.0 0.0 90.0 xyz
      dof rx rz ry
   end
   begin
      id 23
      name LeftUpLeg
      direction 0.000000 -1.000000 0.000000
      length 16.490845
      axis 0.0 0.0 0.0 xyz
      dof rx ry rz
   end
   begin
      id 24
      name LeftLeg
      direction 0.000000 -1.000000 0.000000
      length 14.556576
      axis 0.0 0.0 0.0 xyz
      dof rx ry rz
   end
   begin
      id 25
      name LeftFoot
      direction 0.000000 -0.258819 0.965926
      length 4.831116
      axis 15.0 0.0 0.0 xyz
      dof rx ry rz
   end
   begin
      id 26
      name LeftToeBase
      direction 0.000000 0.000000 1.000000
      length 2.952750
      axis 0.0 0.0 0.0 xyz
      dof rx ry rz
   end
   begin
      id 27
      name RightUpLeg
      direction 0.000000 -1.000000 0.000000
      length 16.490845
      axis 0.0 0.0 0.0 xyz
      dof rx ry rz
   end
   begin
      id 28
      name RightLeg
      direction 0.000000 -1.000000 0.000000
      length 14.556576
      axis 0.0 0.0 0.0 xyz
      dof rx ry rz
   end
   begin
      id 29
      name RightFoot
      direction 0.000000 -0.258819 0.965926
      length 4.831116
      axis 15.0 0.0 0.0 xyz
      dof rx ry rz
   end
   begin
      id 30
      name RightToeBase
      direction 0.000000 0.000000 1.000000
      length 2.952750
      axis 0.0 0.0 0.0 xyz
      dof rx ry rz
   end
:hierarchy
   begin
      root Spine_dum LeftUpLeg_dum RightUpLeg_dum
      Spine_dum Spine
      LeftUpLeg_dum LeftUpLeg
      RightUpLeg_dum RightUpLeg
      Spine Spine_dum1 Spine_dum2 Spine_dum3
      Spine_dum1 Head
      Spine_dum2 LeftShoulder
      Spine_dum3 RightShoulder
      LeftShoulder LeftArm
      LeftArm LeftForeArm
      LeftForeArm LeftHand
      LeftHand LeftHand_dum1 LeftHand_dum2
      LeftHand_dum1 LeftHandThumb1
      RightShoulder RightArm
      RightArm RightForeArm
      RightForeArm RightHand
      RightHand RightHand_dum1 RightHand_dum2
      RightHand_dum1 RightHandThumb1
      LeftUpLeg LeftLeg
      LeftLeg LeftFoot
      LeftFoot LeftToeBase
      RightUpLeg RightLeg
      RightLeg RightFoot
      RightFoot RightToeBase
   end

# File created by Blade
# Date/Time:  Thu Sep 25 15:41:58 2014
# Frame Rate: 120.000 fps
#------------------------------------------------------
:FULLY-SPECIFIED
:DEGREES
57
root -3.234157 32.833149 -2.726545 10.200778 -18.799982 0.421753
Spine -4.967580 2.505681 4.349483
Head 2.490216 -37.751500 11.285579
LeftShoulder -11.498626 26.732090 12.965557
LeftArm 30.570322 10.778801 -61.053871
LeftForeArm 1.119848 -0.000000 16.706474
LeftHand -28.574254 -0.000000 6.257520
LeftHandThumb1 -26.253704 0.000000 33.147579
RightShoulder -18.619516 6.634483 -28.552812
RightArm -8.356972 -4.662399 60.154607
RightForeArm -24.248301 -0.000000 20.644314
RightHand -7.574327 0.000000 2.184766
RightHandThumb1 -24.326973 -0.000000 -32.862282
LeftUpLeg -19.822879 8.479279 1.398610
LeftLeg 38.235990 -0.000000 -0.000000
LeftFoot -15.889602 9.570659 -31.730897
LeftToeBase -4.898186 -0.000000 0.000000
RightUpLeg -11.769781 7.174261 -2.953372
RightLeg 13.466348 -0.000000 -0.000000
RightFoot -14.815427 4.209694 -8.387341
RightToeBase -2.287725 -0.000000 0.000000
58
root -3.196701 32.831790 -2.684493 10.133405 -19.327253 0.574112
Spine -4.952973 2.379816 4.340558
Head 2.698452 -37.983985 11.014113
LeftShoulder -11.451469 26.593463 12.764203
LeftArm 30.602477 11.715299 -61.684800
LeftForeArm 1.117311 -0.000000 16.593640
LeftHand -28.739657 -0.000000 6.736780
LeftHandThumb1 -26.253704 0.000000 33.147579
RightShoulder -18.580098 6.590402 -28.418141
RightArm -8.552426 -5.139092 60.885878
RightForeArm -24.401237 0.000000 20.592231
RightHand -7.178527 -0.000000 2.245252
RightHandThumb1 -24.326973 -0.000000 -32.862282
LeftUpLeg -20.330447 8.269818 1.430948
LeftLeg 39.582877 -0.000000 -0.000000
LeftFoot -15.297389 8.889415 -31.400776
LeftToeBase -4.907377 -0.000000 0.000000
RightUpLeg -11.879282 7.379978 -3.249259
RightLeg 13.696869 -0.000000 -0.000000
RightFoot -14.985994 4.356337 -8.441868
RightToeBase -2.192720 -0.000000 0.000000
59
root -3.150282 32.827784 -2.646407 10.041403 -19.949336 0.722225
Spine -4.855865 2.366968 4.330472
Head 2.815096 -38.273593 10.762339
LeftShoulder -11.333732 26.241798 12.658793
LeftArm 30.422840 12.627682 -62.430929
LeftForeArm 1.425947 0.000000 16.562580
LeftHand -28.733964 0.000000 6.822868
LeftHandThumb1 -26.253704 0.000000 33.147579
RightShoulder -18.589973 6.587765 -28.272681
RightArm -8.710303 -5.744761 61.554192
RightForeArm -24.410846 0.000000 20.503762
RightHand -6.766393 -0.000000 1.765844
RightHandThumb1 -24.326973 -0.000000 -32.862282
LeftUpLeg -20.812600 8.095128 1.455037
LeftLeg 40.947327 -0.000000 -0.000000
LeftFoot -14.850187 8.099463 -31.054935
LeftToeBase -4.651537 -0.000000 0.000000
RightUpLeg -12.023025 7.624836 -3.568350
RightLeg 13.973374 -0.000000 -0.000000
RightFoot -15.148699 4.647311 -8.455799
RightToeBase -2.337768 -0.000000 0.000000
60
root -3.106401 32.821959 -2.607993 9.961059 -20.528129 0.829198
Spine -4.779926 2.317697 4.364843
Head 2.948806 -38.456876 10.524279
LeftShoulder -11.202152 25.992481 12.594389
LeftArm 30.356068 13.679358 -63.055710
LeftForeArm 1.480114 0.000000 16.518548
LeftHand -28.500393 -0.000000 7.260757
LeftHandThumb1 -26.253704 0.000000 33.147579
RightShoulder -18.624295 6.534889 -28.159274
RightArm -8.778651 -6.239573 62.223636
RightForeArm -24.563678 -0.000000 20.331558
RightHand -6.642454 -0.000000 2.564028
RightHandThumb1 -24.326973 -0.000000 -32.862282
LeftUpLeg -21.279768 7.804907 1.515867
LeftLeg 42.276823 -0.000000 -0.000000
LeftFoot -14.647239 7.387847 -31.142652
LeftToeBase -4.561060 -0.000000 0.000000
RightUpLeg -12.149575 7.897789 -3.835882
RightLeg 14.247926 -0.000000 -0.000000
RightFoot -15.319566 4.725562 -8.467586
RightToeBase -2.182414 -0.000000 0.000000
61
root -3.061722 32.817742 -2.565135 9.920442 -21.143940 0.946115
Spine -4.785959 2.250588 4.380036
Head 3.154741 -38.641838 10.247927
LeftShoulder -11.174813 25.951852 12.387201
LeftArm 30.451974 14.430029 -63.655322
LeftForeArm 1.585394 0.000000 16.499889
LeftHand -28.519922 -0.000000 7.916887
LeftHandThumb1 -26.253704 0.000000 33.147579
RightShoulder -18.657632 6.488575 -27.998006
RightArm -8.806923 -6.827281 62.848818
RightForeArm -24.474286 -0.000000 20.147077
RightHand -6.550878 -0.000000 2.911360
RightHandThumb1 -24.326973 -0.000000 -32.862282
LeftUpLeg -21.715546 7.479719 1.624391
LeftLeg 43.523721 -0.000000 -0.000000
LeftFoot -14.376524 6.600152 -31.159452
LeftToeBase -4.979868 -0.000000 0.000000
RightUpLeg -12.329610 8.208660 -4.129957
RightLeg 14.520551 -0.000000 -0.000000
RightFoot -15.482814 4.889611 -8.488734
RightToeBase -2.170176 -0.000000 0.000000
62
root -3.016761 32.814528 -2.520960 9.860752 -21.746944 1.056600
Spine -4.773040 2.157038 4.387516
Head 3.359991 -38.776204 9.953285
LeftShoulder -11.169480 25.911030 12.250374
LeftArm 30.581657 15.340953 -64.195227
LeftForeArm 1.992058 -0.000000 16.532425
LeftHand -28.468556 -0.000000 7.939049
LeftHandThumb1 -26.253704 0.000000 33.147579
RightShoulder -18.689878 6.418761 -27.807127
RightArm -8.829064 -7.436978 63.517365
RightForeArm -24.839656 -0.000000 19.838624
RightHand -6.297421 0.000000 2.291868
RightHandThumb1 -24.326973 -0.000000 -32.862282
LeftUpLeg -22.097704 7.162490 1.761096
LeftLeg 44.679291 -0.000000 -0.000000
LeftFoot -14.128912 5.921581 -30.997102
LeftToeBase -5.150610 -0.000000 0.000000
RightUpLeg -12.477948 8.475641 -4.407934
RightLeg 14.766304 -0.000000 -0.000000
RightFoot -15.618571 5.118382 -8.499766
RightToeBase -2.225925 -0.000000 0.000000
63
root -2.968175 32.810068 -2.475473 9.803872 -22.378751 1.168172
Spine -4.774778 2.091072 4.409742
Head 3.566599 -38.851810 9.703962
LeftShoulder -11.114861 25.761642 12.045709
LeftArm 30.630783 16.648339 -64.301734
LeftForeArm 1.741309 0.000000 16.698002
LeftHand -28.521070 0.000000 9.242011
LeftHandThumb1 -26.253704 0.000000 33.147579
RightShoulder -18.689673 6.393916 -27.683762
RightArm -8.959101 -7.632217 64.135595
RightForeArm -24.452915 0.000000 19.774788
RightHand -6.412219 -0.000000 2.824494
RightHandThumb1 -24.326973 -0.000000 -32.862282
LeftUpLeg -22.438875 6.807738 1.915837
LeftLeg 45.766203 -0.000000 -0.000000
LeftFoot -13.890533 5.358184 -30.913140
LeftToeBase -5.440413 -0.000000 0.000000
RightUpLeg -12.650689 8.772210 -4.702618
RightLeg 15.036229 -0.000000 -0.000000
RightFoot -15.762830 5.349906 -8.505736
RightToeBase -2.255169 -0.000000 0.000000
64
root -2.920436 32.806668 -2.427154 9.750079 -22.998712 1.275711
Spine -4.797026 1.990079 4.428417
Head 3.814265 -38.951974 9.382798
LeftShoulder -11.066939 25.653375 11.927667
LeftArm 30.613373 17.319285 -64.950697
LeftForeArm 1.901368 -0.000000 16.769156
LeftHand -28.381995 -0.000000 9.017598
LeftHandThumb1 -26.253704 0.000000 33.147579
RightShoulder -18.706349 6.325308 -27.541466
RightArm -9.061881 -7.925044 64.805009
RightForeArm -24.109638 -0.000000 19.625142
RightHand -6.410798 -0.000000 2.323115
RightHandThumb1 -24.326973 -0.000000 -32.862282
LeftUpLeg -22.739053 6.395364 2.112749
LeftLeg 46.785434 -0.000000 -0.000000
LeftFoot -13.751612 4.969890 -30.825184
LeftToeBase -5.655778 -0.000000 0.000000
RightUpLeg -12.817872 9.084912 -4.991901
RightLeg 15.291191 -0.000000 -0.000000
RightFoot -15.885180 5.551197 -8.494451
RightToeBase -2.330397 -0.000000 0.000000
65
root -2.867382 32.804613 -2.380351 9.710190 -23.622742 1.374275
Spine -4.830392 1.915054 4.454873
Head 4.049905 -39.066698 9.023869
LeftShoulder -10.976831 25.587516 11.788655
LeftArm 30.660524 17.811252 -65.618266
LeftForeArm 2.176042 -0.000000 16.766136
LeftHand -28.298789 -0.000000 9.156229
LeftHandThumb1 -26.253704 0.000000 33.147579
RightShoulder -18.703899 6.347554 -27.458179
RightArm -9.341562 -7.990616 65.493192
RightForeArm -23.740387 -0.000000 19.496127
RightHand -6.075038 -0.000000 1.997120
RightHandThumb1 -24.326973 -0.000000 -32.862282
LeftUpLeg -23.013652 6.003597 2.330871
LeftLeg 47.731733 -0.000000 -0.000000
LeftFoot -13.726241 4.693839 -30.864308
LeftToeBase -5.495435 -0.000000 0.000000
RightUpLeg -13.009631 9.370870 -5.283740
RightLeg 15.545204 -0.000000 -0.000000
RightFoot -15.985225 5.795482 -8.492327
RightToeBase -2.383455 -0.000000 0.000000
66
root -2.814143 32.802219 -2.325699 9.626360 -24.293052 1.502990
Spine -4.840015 1.853093 4.440624
Head 4.287812 -39.110250 8.706758
LeftShoulder -10.990052 25.561441 11.575470
LeftArm 30.817422 18.399888 -66.101409
LeftForeArm 2.168089 0.000000 16.757528
LeftHand -28.224251 -0.000000 9.716612
LeftHandThumb1 -26.253704 0.000000 33.147579
RightShoulder -18.677434 6.403668 -27.372936
RightArm -9.726631 -7.979766 66.181039
RightForeArm -23.727924 -0.000000 19.629609
RightHand -6.353780 -0.000000 2.055596
RightHandThumb1 -24.326973 -0.000000 -32.862282
LeftUpLeg -23.175058 5.620919 2.539215
LeftLeg 48.566655 -0.000000 -0.000000
LeftFoot -13.708434 4.548956 -30.896894
LeftToeBase -5.648902 -0.000000 0.000000
RightUpLeg -13.161137 9.713253 -5.598798
RightLeg 15.775057 -0.000000 -0.000000
RightFoot -16.070512 5.979617 -8.534838
RightToeBase -2.579679 -0.000000 0.000000
67
root -2.763247 32.799368 -2.266662 9.534289 -24.945715 1.621109
Spine -4.868642 1.761057 4.435918
Head 4.590500 -39.093497 8.372580
LeftShoulder -10.900714 25.338906 11.461267
LeftArm 30.639667 19.000041 -66.705676
LeftForeArm 2.307997 -0.000000 16.873913
LeftHand -28.257744 -0.000000 10.137318
LeftHandThumb1 -26.253704 0.000000 33.147579
RightShoulder -18.626592 6.419180 -27.271916
RightArm -10.130635 -8.042791 66.853537
RightForeArm -23.507192 -0.000000 19.789985
RightHand -6.402241 -0.000000 1.625797
RightHandThumb1 -24.326973 -0.000000 -32.862282
LeftUpLeg -23.282160 5.207846 2.798893
LeftLeg 49.334022 -0.000000 -0.000000
LeftFoot -13.784969 4.506064 -31.107011
LeftToeBase -5.626016 -0.000000 0.000000
RightUpLeg -13.286277 9.996020 -5.895984
RightLeg 15.997099 -0.000000 -0.000000
RightFoot -16.166756 6.222016 -8.570664
RightToeBase -2.733993 -0.000000 0.000000
68
root -2.717467 32.796068 -2.197832 9.413124 -25.618217 1.753401
Spine -4.899261 1.636935 4.396850
Head 4.903953 -39.013900 8.074618
LeftShoulder -10.882007 25.213271 11.336551
LeftArm 30.543586 19.676492 -67.156978
LeftForeArm 2.494267 -0.000000 17.062576
LeftHand -28.261162 0.000000 10.400218
LeftHandThumb1 -26.253704 0.000000 33.147579
RightShoulder -18.589582 6.400718 -27.213694
RightArm -10.495465 -8.102576 67.601911
RightForeArm -23.838445 -0.000000 19.897918
RightHand -6.401117 -0.000000 1.878480
RightHandThumb1 -24.326973 -0.000000 -32.862282
LeftUpLeg -23.279743 4.851921 3.073434
LeftLeg 49.997586 -0.000000 -0.000000
LeftFoot -13.848321 4.485066 -31.172328
LeftToeBase -5.524951 -0.000000 0.000000
RightUpLeg -13.375277 10.282349 -6.204379
RightLeg 16.221486 -0.000000 -0.000000
RightFoot -16.313446 6.483083 -8.572448
RightToeBase -2.714960 -0.000000 0.000000
69
root -2.661950 32.794308 -2.141513 9.346537 -26.300048 1.876324
Spine -4.931422 1.567425 4.356685
Head 5.074349 -38.929205 7.904705
LeftShoulder -10.855746 25.078154 11.248128
LeftArm 30.577782 20.318175 -67.578670
LeftForeArm 2.654526 -0.000000 17.171925
LeftHand -28.142372 -0.000000 10.770133
LeftHandThumb1 -26.253704 0.000000 33.147579
RightShoulder -18.660752 6.347230 -27.111674
RightArm -10.728359 -8.353014 68.264020
RightForeArm -23.846907 -0.000000 20.033605
RightHand -6.351983 -0.000000 2.253035
RightHandThumb1 -24.326973 -0.000000 -32.862282
LeftUpLeg -23.335849 4.456785 3.367920
LeftLeg 50.622701 -0.000000 -0.000000
LeftFoot -13.956169 4.682736 -31.206386
LeftToeBase -5.315229 -0.000000 0.000000
RightUpLeg -13.566106 10.726094 -6.555961
RightLeg 16.504855 -0.000000 -0.000000
RightFoot -16.455220 6.573050 -8.552146
RightToeBase -2.538619 -0.000000 0.000000
